<?xml version="1.0" standalone="no"?>
<!DOCTYPE svg PUBLIC "-//W3C//DTD SVG 20010904//EN"
 "http://www.w3.org/TR/2001/REC-SVG-20010904/DTD/svg10.dtd">
<svg version="1.0" xmlns="http://www.w3.org/2000/svg"
 width="16" height="16" viewBox="0 0 512 512" 
 preserveAspectRatio="xMidYMid meet">

<g transform="translate(0.000000,512) scale(0.100000,-0.100000)" stroke="none">
<path d="M2285 5105 c-1260 -145 -2216 -1160 -2281 -2422 -5 -98 -4 -140 6
-163 13 -33 55 -60 90 -60 35 0 76 27 88 57 6 15 13 87 17 160 21 468 183 916
471 1303 99 133 328 363 462 463 574 430 1295 577 1992 406 418 -103 784 -311
1095 -623 371 -372 590 -808 672 -1336 24 -160 24 -501 0 -660 -86 -548 -322
-1006 -712 -1378 -409 -391 -946 -621 -1508 -647 -150 -7 -182 -16 -202 -56
-19 -35 -19 -63 0 -98 24 -47 60 -55 205 -47 550 29 1065 224 1485 563 130
105 340 321 436 448 522 696 658 1589 366 2414 -53 150 -177 399 -267 534
-254 383 -594 684 -1001 886 -250 125 -490 201 -764 242 -171 27 -486 33 -650
14z"/>
<path d="M2425 4644 c-689 -56 -1276 -409 -1640 -989 -138 -219 -263 -557
-282 -761 -6 -60 -5 -64 25 -93 60 -61 153 -29 168 58 15 92 65 275 99 366
137 365 389 682 719 905 314 213 749 335 1121 316 490 -25 910 -209 1254 -549
573 -567 721 -1437 367 -2162 -186 -379 -494 -688 -871 -870 -226 -109 -443
-166 -714 -187 -178 -14 -198 -23 -208 -94 -5 -36 -1 -46 25 -75 l31 -34 118
3 c506 11 1025 236 1391 602 760 760 826 1946 154 2791 -318 401 -803 677
-1322 753 -109 16 -347 27 -435 20z"/>
<path d="M2524 4061 c-12 -5 -31 -22 -43 -37 l-21 -27 0 -729 c0 -607 2 -734
14 -756 10 -18 58 -52 148 -103 73 -43 216 -125 317 -183 101 -58 195 -106
207 -106 78 0 127 82 90 149 -9 16 -112 81 -287 183 -151 87 -277 158 -281
158 -5 0 -8 313 -8 695 l0 695 -27 30 c-30 32 -75 45 -109 31z"/>
<path d="M1055 2756 c-171 -40 -292 -106 -409 -222 -165 -164 -245 -374 -233
-608 7 -131 24 -202 78 -313 77 -161 212 -295 374 -373 109 -53 180 -70 311
-77 234 -12 443 68 608 233 215 214 290 531 196 817 -84 252 -265 433 -517
517 -85 28 -115 33 -223 36 -84 3 -145 -1 -185 -10z m309 -206 c112 -28 190
-73 277 -160 335 -333 176 -898 -286 -1015 -198 -50 -415 12 -566 164 -121
120 -179 260 -179 427 0 283 208 538 485 594 74 15 189 11 269 -10z"/>
<path d="M756 1015 c-258 -53 -455 -191 -551 -390 -56 -115 -67 -171 -72 -363
-4 -125 -2 -181 7 -203 26 -62 -29 -59 1081 -59 l1011 0 35 35 35 35 -5 183
c-6 203 -16 257 -75 377 -28 57 -58 96 -127 166 -77 78 -104 98 -185 138 -180
88 -196 90 -670 92 -323 2 -430 0 -484 -11z m959 -218 c258 -86 384 -257 385
-519 l0 -78 -885 0 -885 0 0 83 c1 281 158 465 455 532 46 11 152 13 455 12
l395 -3 80 -27z"/>
</g>
</svg>
