<svg id="visual" viewBox="0 0 900 600" width="900" height="600" xmlns="http://www.w3.org/2000/svg" xmlns:xlink="http://www.w3.org/1999/xlink" version="1.1"><path d="M0 457L21.5 459C43 461 86 465 128.8 475.3C171.7 485.7 214.3 502.3 257.2 498.5C300 494.7 343 470.3 385.8 464C428.7 457.7 471.3 469.3 514.2 461.3C557 453.3 600 425.7 642.8 423.5C685.7 421.3 728.3 444.7 771.2 442.5C814 440.3 857 412.7 878.5 398.8L900 385L900 601L878.5 601C857 601 814 601 771.2 601C728.3 601 685.7 601 642.8 601C600 601 557 601 514.2 601C471.3 601 428.7 601 385.8 601C343 601 300 601 257.2 601C214.3 601 171.7 601 128.8 601C86 601 43 601 21.5 601L0 601Z" fill="#4477C5" stroke-linecap="round" stroke-linejoin="miter"></path></svg>